<?xml version="1.0" encoding="UTF-8"?>
<svg id="Layer_1" data-name="Layer 1" xmlns="http://www.w3.org/2000/svg" viewBox="0 0 90 44.24">
  <defs>
    <style>
      .cls-1 {
        font-family: Montserrat-Light, Montserrat;
        font-size: 10.24px;
        font-weight: 300;
      }

      .cls-1, .cls-2 {
        fill: #aac9b9;
      }

      .cls-3 {
        letter-spacing: .14em;
      }

      .cls-4 {
        letter-spacing: .15em;
      }
    </style>
  </defs>
  <path class="cls-2" d="M4.61,27.54c-2.62,0-4.26,2.14-4.26,4.58,0,2.75,2.04,4.53,5.01,4.53,5.5,0,10.11-6.84,13.75-13.47.23-.42.48-.85.71-1.26h-5.32v-.39h5.55c4.11-7.05,8.47-11.95,13.25-12.56,1.6-.22,3.19.26,3.77,1.05l-.13.17c-.75-.83-2.26-1.13-3.95-.83-3.75.71-6.74,6.04-10.15,12.16h6.96v.39h-7.18c-.52.94-1.05,1.89-1.6,2.83-3.86,6.67-9.36,12.6-15.07,12.6-3.37,0-5.94-2.05-5.94-5.19,0-2.62,1.82-4.93,4.61-4.93M22.67,11.47c0,3.24-3.68,5.15-7.08,5.15-4.35,0-6.51-2.75-6.51-5.85C9.07,3.94,17.98,0,24.93,0c10.99,0,18.35,8.02,23.81,8.02,1.92,0,3.84-1.16,3.84-2.92,0-1.19-1.08-2.08-2.46-2.08l.03-.17c1.65,0,2.9,1.07,2.9,2.66,0,2.55-2.77,3.85-5.43,3.85C40.17,9.35,37.68.41,25.37.41c-6.54,0-14.3,3.97-14.3,10.25,0,3.04,2.12,5.33,5.53,5.33,2.87,0,5.8-1.91,5.8-4.52"/>
  <path class="cls-2" d="M30.82,29.26l-1.58,2.12h-.25l1.65-2.15c-1.06-.25-1.54-1.31-1.5-2.4.18-3.91,5.52-9.49,9.07-9.49.46,0,.84.08,1.13.25l1.46-1.92h.29l-1.55,2.05c.43.33.61.85.58,1.49-.07,1.59-1.84,4.86-4.09,7.25,2.11-.11,3.41-1.37,4.67-3.09.1-.07.16-.1.22,0-1.43,2.01-2.76,3.23-5.07,3.27-1.49,1.53-3.17,2.66-4.7,2.66-.11,0-.22,0-.32-.02ZM33.1,28.57c-.15-.73,1.35-2.1,2.66-2.16,1.66-1.76,3.54-4.62,3.61-6.17.04-.93-.42-1.52-1.5-1.52-3.01,0-7.88,5.14-8.03,8.48-.04.96.42,1.89,1.51,1.89.59,0,1.18-.2,1.76-.52Z"/>
  <path class="cls-2" d="M50.75,16.69c-1.24.3-2.33.52-3.41.98-2.92,3.71-5.23,8.01-5.3,9.79-.04.89.31,1.5,1.18,1.5,2.05,0,4.71-4.38,5.34-5.61.06-.07.22-.07.22,0-2.3,4.08-3.98,5.9-5.78,5.9-1.06,0-1.75-.74-1.69-2.21.1-2.14,1.52-5.13,3.45-8.01-1.47,1.11-2.74,2.56-3.86,4.32h-.22c1.29-2.01,2.74-3.6,4.38-4.75,1.2-1.73,2.57-3.42,3.93-4.84,2.05-2.14,4.42-3.62,6.85-3.62,1.7,0,2.87.81,2.82,1.94-.12,2.63-5.4,3.98-7.92,4.6ZM47.56,17.4c1.08-.4,1.4-.46,2.61-.78,1.62-.44,6.87-1.99,6.97-4.11.03-.64-.59-1.01-1.58-1.01-2.34,0-5.2,2.53-7.74,5.58-.09.11-.17.21-.26.31Z"/>
  <path class="cls-2" d="M49.9,29.29c-1.63,0-2.46-.86-2.46-2.51,0-4.08,5.25-9.57,9.18-9.57,1.41,0,2.05.61,2.05,1.48,0,2.56-5.05,5.46-9.37,5.46-.12,0-.25,0-.37,0-.53,1-.85,2-.85,2.88,0,1.35.64,2.02,1.98,2.02,2.3,0,5.18-1.89,7.65-5.68.1-.05.16-.05.22,0-2.4,3.79-5.44,5.93-8.03,5.93ZM49.03,23.95c3.5.16,7.97-2.29,7.97-4.45,0-.59-.45-.89-1.22-.89-2.23,0-5.25,2.61-6.76,5.34Z"/>
  <path class="cls-2" d="M67.76,16.69c-1.24.3-2.33.52-3.41.98-2.92,3.71-5.23,8.01-5.3,9.79-.04.89.31,1.5,1.18,1.5,2.05,0,4.71-4.38,5.34-5.61.06-.07.22-.07.22,0-2.3,4.08-3.98,5.9-5.78,5.9-1.06,0-1.75-.74-1.69-2.21.1-2.14,1.52-5.13,3.45-8.01-1.47,1.11-2.74,2.56-3.86,4.32h-.22c1.29-2.01,2.74-3.6,4.38-4.75,1.2-1.73,2.57-3.42,3.93-4.84,2.05-2.14,4.42-3.62,6.85-3.62,1.7,0,2.87.81,2.82,1.94-.12,2.63-5.4,3.98-7.92,4.6ZM64.57,17.4c1.08-.4,1.4-.46,2.61-.78,1.62-.44,6.87-1.99,6.97-4.11.03-.64-.59-1.01-1.58-1.01-2.34,0-5.2,2.53-7.74,5.58-.09.11-.17.21-.26.31Z"/>
  <path class="cls-2" d="M65.56,23.36c1.39-2.31,3.37-4.07,4.84-5.26-.07-.61,0-1.14.22-1.5.31-.53.85-.86,1.26-.86.58,0,.64.52.41.89-.31.5-1.15,1.08-1.67,1.51.18,1.55,1.14,3.31,1.1,4.95-.06,2.78-3.56,6.17-6.38,6.17-.61,0-1-.22-.99-.63.02-1.01,3.2-1.66,4.25-2.04,1.57-.57,2.69-2.03,2.73-3.72.02-1.24-.7-3.13-.9-4.59-1.44,1.18-3.38,2.93-4.63,5.07h-.23Z"/>
  <path class="cls-2" d="M75.35,29.29c-1.63,0-2.46-.86-2.46-2.51,0-4.08,5.25-9.57,9.18-9.57,1.41,0,2.05.61,2.05,1.48,0,2.56-5.06,5.46-9.38,5.46-.12,0-.25,0-.37,0-.53,1-.85,2-.85,2.88,0,1.35.64,2.02,1.98,2.02,2.3,0,5.18-1.89,7.65-5.68.1-.05.16-.05.22,0-2.4,3.79-5.44,5.93-8.03,5.93ZM74.48,23.95c3.5.16,7.97-2.29,7.97-4.45,0-.59-.45-.89-1.22-.89-2.23,0-5.25,2.61-6.76,5.34Z"/>
  <path class="cls-2" d="M83.15,23.36c1.39-2.31,3.37-4.07,4.84-5.26-.07-.61,0-1.14.22-1.5.31-.53.85-.86,1.26-.86.58,0,.64.52.41.89-.31.5-1.15,1.08-1.67,1.51.18,1.55,1.14,3.31,1.1,4.95-.06,2.78-3.56,6.17-6.38,6.17-.61,0-1-.22-.99-.63.02-1.01,3.2-1.66,4.25-2.04,1.57-.57,2.69-2.03,2.73-3.72.02-1.24-.7-3.13-.9-4.59-1.44,1.18-3.38,2.93-4.63,5.07h-.23Z"/>
  <text class="cls-1" transform="translate(23.25 41.57) scale(1.16 1)"><tspan class="cls-3" x="0" y="0">ST</tspan><tspan class="cls-4" x="14.83" y="0">ORM</tspan></text>
</svg>