<?xml version="1.0" encoding="UTF-8"?>
<svg xmlns="http://www.w3.org/2000/svg" viewBox="0 0 300 300">
  <defs>
    <style>
      .cls-1 {
        stroke: #ecc19c;
      }

      .cls-1, .cls-2, .cls-3, .cls-4, .cls-5, .cls-6, .cls-7, .cls-8, .cls-9, .cls-10, .cls-11, .cls-12, .cls-13, .cls-14, .cls-15, .cls-16 {
        stroke-miterlimit: 10;
      }

      .cls-1, .cls-3, .cls-7, .cls-9, .cls-11, .cls-13 {
        fill: none;
      }

      .cls-2 {
        fill: #5e929f;
      }

      .cls-2, .cls-5, .cls-7, .cls-10, .cls-14 {
        stroke: #305065;
      }

      .cls-3 {
        stroke: #000;
      }

      .cls-4 {
        fill: #998675;
      }

      .cls-4, .cls-9 {
        stroke: #736357;
      }

      .cls-17 {
        fill: #f0e0cf;
      }

      .cls-5 {
        fill: #a5c2e2;
      }

      .cls-6 {
        fill: #333;
        stroke: #1a1a1a;
      }

      .cls-8 {
        fill: #736357;
        stroke: #534741;
      }

      .cls-10 {
        fill: #a5c2e1;
      }

      .cls-11, .cls-12, .cls-15 {
        stroke: #4d4d4d;
      }

      .cls-12 {
        fill: #fff9f1;
      }

      .cls-13, .cls-16 {
        stroke: #ceb2a3;
      }

      .cls-14 {
        fill: #a7c1e2;
      }

      .cls-15 {
        fill: #c7c8ca;
      }

      .cls-16 {
        fill: #f0d0b4;
      }
    </style>
  </defs>
  <g id="cirkel">
    <rect class="cls-17" width="300" height="300"/>
    <g id="krop">
      <path class="cls-2" d="M161.49,148.28c.09,0,.31,1.56.75,4.68.19,1.36.35,2.59.48,3.67,3.43.01,8.21.31,13.73,1.61,5.05,1.18,16.71,3.9,26.48,13.64,7.7,7.67,16.36,21.73,13.87,30.38-8.04,28-119.39,16.64-119.39,15.48,0-.69,38.81,7.33,55.76-13.38,15.59-19.03,7.58-56.1,8.3-56.08Z"/>
      <path class="cls-2" d="M138.29,148.28c-.76,0-1.4,5.44-1.83,10.19-3.28.39-7.96,1.17-13.38,2.87-7.21,2.25-19.16,5.98-28.33,16.74-8.36,9.81-10.2,20.47-10.8,24.19-1.27,7.79-3.33,20.49,1.72,23.5,11.5,6.86,56.29-38.64,54.46-66.54-.08-1.29-.82-10.95-1.83-10.95Z"/>
      <path class="cls-3" d="M125.65,160.58c1.17,2,3.15,4.87,6.34,7.52.61.51,14.07,11.32,28.31,5.16,9.67-4.18,13.3-13.42,14.05-15.47"/>
      <path class="cls-16" d="M136.98,147.73c-.18,3.58-.35,7.16-.53,10.74-1.88.23-3.88.54-6,.97-1.7.35-3.3.73-4.8,1.14,1,1.74,2.66,4.19,5.27,6.58,3.22,2.95,6.3,4.36,8.02,5.14,2.34,1.05,6.1,2.73,11.06,2.85,9.86.23,16.64-5.93,17.63-6.86,4.01-3.75,5.86-7.98,6.72-10.5-2.16-.27-4.37-.52-6.64-.73-1.69-.16-3.35-.3-4.98-.42-.41-2.78-.82-5.57-1.24-8.35-8.17-.18-16.34-.37-24.51-.55Z"/>
    </g>
  </g>
  <g id="vanddpyt">
    <path class="cls-10" d="M100.91,205.4c-3.5-3.32-7.05-8.33-12.17-7.92-4.34.35-5.25,4.21-13.78,12.46-8.54,8.25-11.86,8.47-12.94,13.94-.86,4.37.1,10.11,2.71,13.45,2.65,3.4,5.04,1.79,7.02,4.91,2.55,4.01-.29,8.38,1,15.99.96,5.66,4.13,12.75,8.77,15.02,3.19,1.56,4.79-.29,15.8-3.9,7.61-2.5,11.42-3.74,13.98-3.3,6.38,1.1,7.44,5.9,16.77,11.6,5.13,3.13,9.57,5.85,14.92,5.88,9.72.05,10.26-8.81,23.44-13.14,2.9-.95,11.99-3.78,22.06.57,4.8,2.08,4.74,3.59,8.54,5.3,12.25,5.53,30.45-2.27,33.39-15.22,2.28-10.05-5.72-18.43-1.72-27.56,2.3-5.25,5.86-4.59,6.55-8.73,1.23-7.44-8.6-19.71-19.36-23.11-8.88-2.81-13.95,1.82-25.04,5.45-10.14,3.32-8.68.35-41.7,1.63-33.57,1.3-39.94,4.55-48.24-3.31Z"/>
  </g>
  <g id="Gryde">
    <path class="cls-15" d="M105.98,186.14c-.96,5.49-2.02,13.33-2.18,22.82-.18,11.15-.28,16.72,2.18,22.13,5.61,12.36,20.8,16.58,27.98,18.34,20.38,5.02,51.44,2.87,59.62-13.76,1.95-3.96,1.91-10.29,1.83-22.96-.07-11.35-1-20.68-1.83-27.03-3.13-2.34-7.86-5.48-14.1-8.14-12.67-5.4-23.61-5.44-32.1-5.39-10.94.07-21.21.13-31.88,6.46-4.32,2.56-7.46,5.41-9.51,7.53Z"/>
    <path class="cls-10" d="M112.22,187.87c5.4,2.27,10.17,3.71,13.91,4.65,10.3,2.59,27.95,5.22,48.02-.17,5.37-1.44,9.77-3.15,12.97-4.55-1.07-.9-1.99-1.17-2.64-1.24-1.26-.14-1.78.4-2.64,0-1.07-.5-.97-1.66-1.83-1.83-.77-.15-1.06.73-2.06.92-1.3.24-1.88-1.06-3.67-1.83-2.43-1.06-3.39.45-5.6-.53-2.2-.98-1.77-2.7-3.57-3.26-2.49-.77-4.16,2.28-6.76,1.49-1.63-.49-1.39-1.81-3.21-2.41-1.97-.65-2.66.75-5.59.69-2.74-.06-3-1.31-5.42-1.03-2.01.23-2.16,1.13-4.01,1.15-2.19.02-2.52-1.23-4.36-1.15-2.34.1-2.44,2.15-4.93,2.64-2.83.56-4.25-1.79-6.31-.8-1.5.72-1.18,2.17-2.75,2.68-1.68.55-2.99-.79-4.01,0-.61.47-.4,1.15-.8,2.02-.45.96-1.6,2.05-4.74,2.58Z"/>
    <path class="cls-7" d="M134.04,188.39c1.09-1.35,2.41-2.57,3.55-2.29,1.23.3,1.33,2.11,2.52,2.29,1.41.22,1.98-2.18,3.78-2.33,1.82-.15,2.52,2.19,4.7,2.38,1.42.12,2.67-.73,3.55-1.53"/>
    <path class="cls-7" d="M162.25,191.94c1.73-1.79,3.01-2.05,3.86-1.95,1.11.13,1.3.86,2.58.97,1.35.12,1.86-.64,3.65-.98,1.18-.23,2.2-.13,2.87-.02"/>
    <path class="cls-15" d="M105.45,188.45c-3.65-1.48-7.65-.35-9.59,2.45-2.25,3.26-.67,7.28.8,9.3,3,4.12,9.43,5.17,11.24,3.21.93-1.02.92-3.17,0-4.01-.46-.42-.92-.31-2.52-.46-2.57-.25-3.92-.38-4.59-1.26-.68-.91-.61-2.55.34-3.67.87-1.01,2.29-1.38,3.56-.92.25-1.55.5-3.09.75-4.64Z"/>
    <path class="cls-15" d="M194.6,192.6c3.65-1.48,7.65-.35,9.59,2.45,2.25,3.26.67,7.28-.8,9.3-3,4.12-9.43,5.17-11.24,3.21-.93-1.02-.92-3.17,0-4.01.46-.42.92-.31,2.52-.46,2.57-.25,3.92-.38,4.59-1.26.73-.97.4-2.62-.34-3.67-.89-1.25-2.52-1.85-4.15-1.5-.05-1.35-.11-2.71-.16-4.06Z"/>
    <path class="cls-11" d="M106.99,186.05c7.91,3.73,23.49,9.81,43.91,9.44,19.52-.35,34.32-6.42,42.08-10.26-7.5-5.03-18.36-10.61-31.99-12.67-8.6-1.3-15.65-.8-20.87-.43-7.74.55-12.92.96-19.03,3.64-6.81,2.98-11.41,7.29-14.1,10.28Z"/>
  </g>
  <g id="ansigt">
    <path class="cls-16" d="M108.55,89.56c-2.3,6.74-5.08,14.92-3.27,25.38.36,2.06,2.29,12.31,9.7,20.48,16.85,18.59,54.43,18.09,67.87,1.22,5.01-6.29,6.68-14.87,7.95-21.4,1.01-5.22,2.62-13.64.57-22.93-2.79-12.67-12.85-29.01-31.16-34.05-12.88-3.55-27.67-.91-37.9,7.76-8.01,6.78-10.96,15.33-13.76,23.54Z"/>
    <path class="cls-4" d="M160.53,85.43c-.79,1.27.09,3.12.46,3.9,2.23,4.7,7.94,6.09,9.29,6.42,2.1.51,6.66,1.63,9.63-.92.26-.22,2.33-2.05,1.95-4.07-.37-1.97-2.86-2.93-4.01-3.38-2.11-.82-2.57-.21-5.27-.8-3.37-.74-3.52-1.88-6.42-2.29-.86-.12-4.51-.64-5.62,1.15Z"/>
    <path class="cls-4" d="M138.29,81.99c.53.09,3.97.73,4.72,2.98,1.06,3.2-4.19,7.06-4.72,7.45-.28.21-6.16,4.39-12.5,2.29-.94-.31-4.12-1.37-4.36-3.32-.21-1.79,2.14-3.47,4.01-4.82,1.55-1.11,2.81-1.65,4.7-2.46,3.94-1.67,5.91-2.51,8.14-2.13Z"/>
    <path class="cls-12" d="M138.94,104.63c.23-2.34-5.51-5.73-10.97-5.44-5.5.29-10.92,4.31-10.43,6.65.5,2.43,7.4,3.05,11.81,2.64,3.01-.28,9.37-1.47,9.6-3.84Z"/>
    <path class="cls-12" d="M156.74,104.63c-.2-2.29,5.03-5.07,9.75-5.46,6.19-.52,12.91,2.95,12.73,5.46-.18,2.49-7.18,4.31-12.73,3.96-3.73-.24-9.54-1.63-9.75-3.96Z"/>
    <circle class="cls-6" cx="128.23" cy="104.63" r="3.76"/>
    <circle class="cls-6" cx="166.49" cy="104.63" r="3.76"/>
    <path class="cls-13" d="M140.12,126.71c.64-.6,4.4-4.01,10.09-3.67,5.19.31,8.37,3.52,9.06,4.24"/>
    <path class="cls-13" d="M143.15,108.6c-.11.15-1.64,2.38-.62,4.93.72,1.79,2.4,3.03,4.36,3.21"/>
    <path class="cls-10" d="M168.11,114.07c-.52.09-.34,1.35-1.04,5.42-.75,4.3-1.39,5.48-.57,6.42.84.96,2.71,1.1,3.76.34,1.34-.97,1.06-3.19.81-5.16-.44-3.46-2.04-7.19-2.95-7.02Z"/>
    <path class="cls-10" d="M126.23,126.11c.52.09.34,1.35,1.04,5.42.75,4.3,1.39,5.48.57,6.42-.84.96-2.71,1.1-3.76.34-1.34-.97-1.06-3.19-.81-5.16.44-3.46,2.04-7.19,2.95-7.02Z"/>
    <path class="cls-10" d="M116.62,106.64c-.72.42-.65,2.16,0,3.32.66,1.18,2.17,2.18,2.98,1.72.68-.38.7-1.68.46-2.52-.51-1.75-2.59-3.02-3.44-2.52Z"/>
    <path class="cls-16" d="M108.55,89.56c-1.34-.56-3.68-1.29-6.5-.95-5.23.63-10.27,4.73-11.58,10.52-1.06,4.68.35,10.3,4.7,13.54,4.26,3.18,9.13,2.44,10.1,2.27-.36-2.18-.59-4.66-.58-7.38.04-7.64,2.05-13.85,3.85-18"/>
    <path class="cls-16" d="M191.48,90.94c.66,0,6.98.12,10.89,5.51,4.08,5.62,1.89,11.96,1.61,12.73-.45,1.22-2.19,5.97-6.99,7.57-2.82.94-5.36.34-6.48,0,.84-2.6,1.61-5.76,2.01-9.4.74-6.75-.09-12.44-1.03-16.39Z"/>
    <path class="cls-5" d="M168.15,149.34c-.52.09-.34,1.35-1.04,5.42-.75,4.3-1.39,5.48-.57,6.42.84.96,2.71,1.1,3.76.34,1.34-.97,1.06-3.19.81-5.16-.44-3.46-2.04-7.19-2.95-7.02Z"/>
    <path class="cls-14" d="M152.74,227.85c.52.09.34,1.35,1.04,5.42.75,4.3,1.39,5.48.57,6.42-.84.96-2.71,1.1-3.76.34-1.34-.97-1.06-3.19-.81-5.16.44-3.46,2.04-7.19,2.95-7.02Z"/>
    <path class="cls-10" d="M92.2,163.4c-.32.68-2.57-.81-5.81,0-3.57.89-4.89,3.7-6.27,3.07-.95-.43-1.21-2.16-.92-3.37.64-2.64,4.29-4.13,7.18-3.83,3.46.36,6.18,3.33,5.81,4.13Z"/>
    <path class="cls-10" d="M105.92,178.32c-.32.68-2.57-.81-5.81,0-3.57.89-4.89,3.7-6.27,3.07-.95-.43-1.21-2.16-.92-3.37.64-2.64,4.29-4.13,7.18-3.83,3.46.36,6.18,3.33,5.81,4.13Z"/>
    <path class="cls-9" d="M107.56,48.75c-.94,2.52-2.16,6.88-1.61,12.27.28,2.72.94,5,1.61,6.76"/>
    <path class="cls-9" d="M189.16,61.36c.59,1.97,1.16,4.54,1.35,7.57.22,3.62-.19,6.69-.66,8.94"/>
    <path class="cls-1" d="M105.27,102.52c-1.67-1.01-3.52-.65-4.58.8-.88,1.2-.92,2.74-.92,3.21"/>
    <path class="cls-13" d="M192.8,101.94c2.18-.14,4.13.97,4.86,2.69.62,1.46.15,2.86,0,3.27"/>
    <path class="cls-14" d="M122.49,210.45c-.52.09-.34,1.35-1.04,5.42-.75,4.3-1.39,5.48-.57,6.42.84.96,2.71,1.1,3.76.34,1.34-.97,1.06-3.19.81-5.16-.44-3.46-2.04-7.19-2.95-7.02Z"/>
    <path class="cls-10" d="M174.62,204.11c-.52.09-.34,1.35-1.04,5.42-.75,4.3-1.39,5.48-.57,6.42.84.96,2.71,1.1,3.76.34,1.34-.97,1.06-3.19.81-5.16-.44-3.46-2.04-7.19-2.95-7.02Z"/>
    <path class="cls-10" d="M133.61,173.39c.52.09.34,1.35,1.04,5.42.75,4.3,1.39,5.48.57,6.42-.84.96-2.71,1.1-3.76.34-1.34-.97-1.06-3.19-.81-5.16.44-3.46,2.04-7.19,2.95-7.02Z"/>
    <path class="cls-10" d="M181.16,190.45c-.22.46,2.03,1.09,3.21,3.52,1.41,2.9-.24,5.25,1.07,6.26,1.12.87,3.69.18,4.59-1.37,1.37-2.36-1.8-5.62-2.14-5.96-2.56-2.57-6.45-3.03-6.73-2.45Z"/>
  </g>
  <g id="hår">
    <path class="cls-8" d="M175.51,40.74c-.34-2.3-.32-5.05.84-7.74,3.77-8.74,18.41-14.25,29.35-8.18,10.07,5.59,12.23,18.33,9.71,26.6-2.08,6.79-10.57,11.15-10.01,11.85.32.4,2.65-1.33,6.11-.92,1.05.12,1.75.21,1.99.69.78,1.59-3.97,6.92-9.71,7.57-2.06.23-3.77-.2-4.73-.51-.97-1.44-2.41-3.28-4.47-5.08-1.98-1.73-3.91-2.89-5.42-3.66-.53-3.2-1.46-5.73-2.24-7.47-1.23-2.75-3.54-6.82-7.7-10.42-1.44-1.25-2.76-2.14-3.71-2.73Z"/>
    <path class="cls-8" d="M84.88,58.97c-1.72-1.3-4.32-3.63-6.37-7.25-4.76-8.42-2.57-16.94-2.14-18.5.46-1.66,3.33-12.06,13.38-15.9,9.58-3.66,20.59.6,25.91,8.25,2.92,4.2,3.55,8.59,3.69,11.01-1.24.54-2.61,1.27-4,2.26-4.5,3.22-6.74,7.42-7.8,9.89-1.25-.12-3.05-.19-5.2.08-7.02.87-11.74,4.66-13.41,6.04-1.12.92-2.57,2.26-4.07,4.11Z"/>
    <path class="cls-8" d="M92.96,93.9c-1.13-2.83-2.41-6.92-2.82-11.99-.49-6.12.5-11.14,1.41-14.36-1.48.25-3.24.84-4.4,2.29-1.52,1.92-1.05,4.16-1.83,4.36-.94.23-3.19-2.6-3.67-5.73-1.02-6.71,6.24-13.96,12.84-17.2,4.84-2.37,9.59-2.71,13.07-2.52.85-2.03,2.41-5.03,5.27-7.8,5.37-5.18,11.76-6.12,15.39-6.65,10.83-1.58,19.6,2.36,23.36,4.36,2.32-.93,6.77-2.35,12.38-1.83,8.18.75,13.48,5.14,15.25,6.65,7.74,6.59,9.51,15.27,9.94,17.89,1.25.6,10.7,5.38,13.1,16.28,1.78,8.04-1.38,14.47-2.34,16.26-.86-.63-2.07-1.38-3.62-1.97-1.92-.73-3.62-.94-4.82-.99-1.99-3.49-3.97-6.97-5.96-10.46-.16,1.26-.6,3.24-1.91,5.26-2.7,4.16-7.05,5.31-8.18,5.58.34-1.96.63-4.77.31-8.1-.11-1.1-1.08-9.97-6.63-16.25-9-10.18-28.42-11.69-35.95-3.63-4.3,4.61-5.09,12.76-5.5,16.97-.61,6.31.26,11.95-.99,12.23-1.04.23-1.87-3.62-5.73-6.42-2.27-1.65-4.67-2.26-6.42-2.52.21,1.95.63,4.74,1.59,8.03.52,1.79.98,2.96.55,3.29-.83.62-3.28-3.18-8.1-5.04-1.04-.4-5.56-2.14-10.3-.18-2.77,1.15-4.47,3.09-5.29,4.21Z"/>
  </g>
</svg>